<svg id="Layer_2" data-name="Layer 2" xmlns="http://www.w3.org/2000/svg" viewBox="0 0 452.38 452.38"><defs>
  <linearGradient id="Gradient1">
        <stop class="stop1" offset="0%"/>
        <stop class="stop2" offset="100%"/>
      </linearGradient>
      <linearGradient id="Gradient2" x1="0" x2="0" y1="0" y2="1">
        <stop offset="0%" stop-color="rgba(255, 105, 180, 0.75)"/>
        <stop offset="100%" stop-color="rgba(135, 206, 235, 0.75)"/>
      </linearGradient>
  <style>
  .cls-1{fill:url(#Gradient1);}
  .stop1 { stop-color: rgba(255, 105, 180, 0.75); }
        .stop2 { stop-color: rgba(135, 206, 235, 0.75); }
</style>
</defs><title>vybes - logo</title><path class="cls-1" d="M500,273.81c-124.72,0-226.19,101.47-226.19,226.19S375.28,726.19,500,726.19,726.19,624.72,726.19,500,624.72,273.81,500,273.81ZM720.1,494a2.9,2.9,0,0,1-2.92,3H674.34a22.2,22.2,0,0,0-22.17,22.17v97.35a16.24,16.24,0,0,1-16.22,16.22h-0.39a16.24,16.24,0,0,1-16.22-16.22V422.24a22.2,22.2,0,0,0-22.17-22.17h-0.39a22.2,22.2,0,0,0-22.17,22.17V674.72a16.24,16.24,0,0,1-16.22,16.22H558a16.24,16.24,0,0,1-16.22-16.22V325.28a22.2,22.2,0,0,0-22.17-22.17h-0.39A22.2,22.2,0,0,0,497,325.28V577.76A16.24,16.24,0,0,1,480.81,594h-0.39a16.24,16.24,0,0,1-16.22-16.22V422.24A22.2,22.2,0,0,0,442,400.07h-0.39a22.2,22.2,0,0,0-22.17,22.17V539a16.24,16.24,0,0,1-16.22,16.22h-0.39A16.24,16.24,0,0,1,386.63,539V461a22.2,22.2,0,0,0-22.17-22.17h-0.39A22.2,22.2,0,0,0,341.9,461V480.8A16.24,16.24,0,0,1,325.68,497H282.81a2.9,2.9,0,0,1-2.92-3C283.07,375.36,380.55,279.76,500,279.76S716.93,375.36,720.1,494ZM279.9,506a2.9,2.9,0,0,1,2.92-3h42.86a22.2,22.2,0,0,0,22.17-22.17V461a16.24,16.24,0,0,1,16.22-16.22h0.39A16.24,16.24,0,0,1,380.68,461v78a22.2,22.2,0,0,0,22.17,22.17h0.39A22.2,22.2,0,0,0,425.42,539V422.24A16.24,16.24,0,0,1,441.64,406H442a16.24,16.24,0,0,1,16.22,16.22V577.76a22.2,22.2,0,0,0,22.17,22.17h0.39A22.2,22.2,0,0,0,503,577.76V325.28a16.24,16.24,0,0,1,16.22-16.22h0.39a16.24,16.24,0,0,1,16.22,16.22V674.72A22.2,22.2,0,0,0,558,696.89h0.39a22.2,22.2,0,0,0,22.17-22.17V422.24A16.24,16.24,0,0,1,596.77,406h0.39a16.24,16.24,0,0,1,16.22,16.22V616.55a22.2,22.2,0,0,0,22.17,22.17h0.39a22.2,22.2,0,0,0,22.17-22.17V519.2A16.24,16.24,0,0,1,674.34,503h42.85a2.9,2.9,0,0,1,2.92,3C716.93,624.64,619.45,720.24,500,720.24S283.07,624.64,279.9,506Z" transform="translate(-273.81 -273.81)"/></svg>
