<svg id="Layer_2" data-name="Layer 2" xmlns="http://www.w3.org/2000/svg" viewBox="0 0 476.17 476.16"><defs><style>.cls-1{fill:#414141;}</style></defs><title>logo-dots</title><path class="cls-1" d="M707.12,395a3,3,0,0,0,4,1.32,3,3,0,1,0-2.7-5.32A3,3,0,0,0,707.12,395Z" transform="translate(-261.92 -261.92)"/><path class="cls-1" d="M674.36,657.74a3,3,0,0,0-4.05,4.36A3,3,0,1,0,674.36,657.74Z" transform="translate(-261.92 -261.92)"/><path class="cls-1" d="M575.81,722.64a3,3,0,0,0-5.68,1.85A3,3,0,1,0,575.81,722.64Z" transform="translate(-261.92 -261.92)"/><path class="cls-1" d="M653.32,674.31a3,3,0,0,0-.28,4.19,3,3,0,1,0,4.47-3.94A3,3,0,0,0,653.32,674.31Z" transform="translate(-261.92 -261.92)"/><path class="cls-1" d="M682.12,648.71a3,3,0,0,0-3.82,4.56A3,3,0,1,0,682.12,648.71Z" transform="translate(-261.92 -261.92)"/><path class="cls-1" d="M702.54,619.48a3,3,0,0,0-3.09,5.08A3,3,0,1,0,702.54,619.48Z" transform="translate(-261.92 -261.92)"/><path class="cls-1" d="M696.23,629.57a3,3,0,0,0-3.34,4.92A3,3,0,1,0,696.23,629.57Z" transform="translate(-261.92 -261.92)"/><path class="cls-1" d="M689.42,639.32a3,3,0,0,0-3.59,4.74A3,3,0,1,0,689.42,639.32Z" transform="translate(-261.92 -261.92)"/><path class="cls-1" d="M625.16,695.55a3,3,0,0,0-.91,4.1,3,3,0,1,0,5-3.22A3,3,0,0,0,625.16,695.55Z" transform="translate(-261.92 -261.92)"/><path class="cls-1" d="M646.48,681.23a3.58,3.58,0,0,0-3.29,2.61,3,3,0,0,0,.61,2.18,3,3,0,1,0,4.67-3.71A3,3,0,0,0,646.48,681.23Z" transform="translate(-261.92 -261.92)"/><path class="cls-1" d="M608.71,708.53a3,3,0,0,0-5.33,2.7A3,3,0,1,0,608.71,708.53Z" transform="translate(-261.92 -261.92)"/><path class="cls-1" d="M731.69,485.31a3,3,0,0,0,3.14,2.78,3,3,0,1,0-.37-5.94A3,3,0,0,0,731.69,485.31Z" transform="translate(-261.92 -261.92)"/><path class="cls-1" d="M598,713.79a3,3,0,0,0-5.46,2.42A3,3,0,1,0,598,713.79Z" transform="translate(-261.92 -261.92)"/><path class="cls-1" d="M615.08,701.66a3,3,0,0,0-1.12,4,3,3,0,1,0,5.18-3A3,3,0,0,0,615.08,701.66Z" transform="translate(-261.92 -261.92)"/><path class="cls-1" d="M634.9,688.95a3,3,0,0,0-.7,4.14,3,3,0,1,0,4.85-3.47A3,3,0,0,0,634.9,688.95Z" transform="translate(-261.92 -261.92)"/><path class="cls-1" d="M706.07,608.89a3.56,3.56,0,0,0-2,3.68,3,3,0,0,0,1.42,1.77,3,3,0,0,0,4-1.16,3,3,0,0,0,.25-2.29A3.58,3.58,0,0,0,706.07,608.89Z" transform="translate(-261.92 -261.92)"/><path class="cls-1" d="M662,666.32a3,3,0,0,0-.07,4.2,3,3,0,1,0,4.27-4.16A3,3,0,0,0,662,666.32Z" transform="translate(-261.92 -261.92)"/><path class="cls-1" d="M279.28,572.13a3,3,0,0,0-3.74-1.92,3,3,0,1,0,1.86,5.68A3,3,0,0,0,279.28,572.13Z" transform="translate(-261.92 -261.92)"/><path class="cls-1" d="M270.87,553a3,3,0,0,0-1.26-5.82A3,3,0,1,0,270.87,553Z" transform="translate(-261.92 -261.92)"/><path class="cls-1" d="M734.43,518.22a3,3,0,0,0-.53,5.93A3,3,0,1,0,734.43,518.22Z" transform="translate(-261.92 -261.92)"/><path class="cls-1" d="M734.91,493.8a3,3,0,0,0,.37,5.94A3,3,0,1,0,734.91,493.8Z" transform="translate(-261.92 -261.92)"/><path class="cls-1" d="M713.58,598.45a3,3,0,0,0-2.56,5.36A3,3,0,1,0,713.58,598.45Z" transform="translate(-261.92 -261.92)"/><path class="cls-1" d="M275.62,563.11a3.57,3.57,0,0,0-1.1-4,3,3,0,0,0-2.25-.31,3,3,0,1,0,1.56,5.75A3,3,0,0,0,275.62,563.11Z" transform="translate(-261.92 -261.92)"/><path class="cls-1" d="M268.5,541.29a3,3,0,0,0-1-5.88A3,3,0,1,0,268.5,541.29Z" transform="translate(-261.92 -261.92)"/><path class="cls-1" d="M269.32,526.23a3,3,0,0,0-3.27-2.63,3,3,0,1,0,.67,5.92A3,3,0,0,0,269.32,526.23Z" transform="translate(-261.92 -261.92)"/><path class="cls-1" d="M722.43,576.39a3,3,0,0,0-2,5.61A3,3,0,1,0,722.43,576.39Z" transform="translate(-261.92 -261.92)"/><path class="cls-1" d="M726,565a3,3,0,0,0-1.72,5.71A3,3,0,1,0,726,565Z" transform="translate(-261.92 -261.92)"/><path class="cls-1" d="M718.28,587.55A3,3,0,0,0,716,593,3,3,0,1,0,718.28,587.55Z" transform="translate(-261.92 -261.92)"/><path class="cls-1" d="M731.41,541.84a3,3,0,0,0-1.13,5.85A3,3,0,1,0,731.41,541.84Z" transform="translate(-261.92 -261.92)"/><path class="cls-1" d="M733.22,530.07a3,3,0,0,0-.83,5.9A3,3,0,1,0,733.22,530.07Z" transform="translate(-261.92 -261.92)"/><path class="cls-1" d="M729,553.5a3,3,0,0,0-1.42,5.78A3,3,0,1,0,729,553.5Z" transform="translate(-261.92 -261.92)"/><path class="cls-1" d="M583.17,716.8a3,3,0,0,0-1.73,3.83,3,3,0,1,0,5.58-2.14A3,3,0,0,0,583.17,716.8Z" transform="translate(-261.92 -261.92)"/><path class="cls-1" d="M338,670.37a3,3,0,1,0,4.37,4A3,3,0,0,0,338,670.37Z" transform="translate(-261.92 -261.92)"/><path class="cls-1" d="M329.55,661.95a3,3,0,1,0,4.16,4.26A3,3,0,0,0,329.55,661.95Z" transform="translate(-261.92 -261.92)"/><path class="cls-1" d="M346.8,678.36a3,3,0,1,0,4.56,3.82A3,3,0,0,0,346.8,678.36Z" transform="translate(-261.92 -261.92)"/><path class="cls-1" d="M365.59,692.94a3,3,0,1,0,4.92,3.34A3,3,0,0,0,365.59,692.94Z" transform="translate(-261.92 -261.92)"/><path class="cls-1" d="M379.59,698.51a3,3,0,0,0-4.08,1,3,3,0,1,0,5.08,3.09A3,3,0,0,0,379.59,698.51Z" transform="translate(-261.92 -261.92)"/><path class="cls-1" d="M321.56,653.11a3,3,0,1,0,3.94,4.47A3,3,0,0,0,321.56,653.11Z" transform="translate(-261.92 -261.92)"/><path class="cls-1" d="M356,685.89a3,3,0,1,0,4.75,3.59A3,3,0,0,0,356,685.89Z" transform="translate(-261.92 -261.92)"/><path class="cls-1" d="M300.4,624.32a3,3,0,1,0,3.22,5A3,3,0,0,0,300.4,624.32Z" transform="translate(-261.92 -261.92)"/><path class="cls-1" d="M292.8,604.79a3,3,0,0,0-4-1.33,3,3,0,1,0,2.7,5.32A3,3,0,0,0,292.8,604.79Z" transform="translate(-261.92 -261.92)"/><path class="cls-1" d="M286.1,592.58a3,3,0,0,0-2.27,0,3,3,0,1,0,2.42,5.46,3,3,0,0,0,1.55-1.66A3.58,3.58,0,0,0,286.1,592.58Z" transform="translate(-261.92 -261.92)"/><path class="cls-1" d="M283.23,583.25a3,3,0,0,0-3.83-1.73,3,3,0,1,0,2.14,5.57A3,3,0,0,0,283.23,583.25Z" transform="translate(-261.92 -261.92)"/><path class="cls-1" d="M389.77,704.35a3,3,0,0,0-4,1.19,3,3,0,1,0,5.23,2.83A3,3,0,0,0,389.77,704.35Z" transform="translate(-261.92 -261.92)"/><path class="cls-1" d="M306.24,638.4a3,3,0,0,0,2,1.24,3.57,3.57,0,0,0,3.43-2.47A3,3,0,1,0,306.24,638.4Z" transform="translate(-261.92 -261.92)"/><path class="cls-1" d="M314,643.88a3,3,0,1,0,3.71,4.66A3,3,0,0,0,314,643.88Z" transform="translate(-261.92 -261.92)"/><path class="cls-1" d="M294.34,614a3,3,0,1,0,3,5.18A3,3,0,0,0,294.34,614Z" transform="translate(-261.92 -261.92)"/><path class="cls-1" d="M479.17,731.22a3,3,0,0,0-3.23,2.68,3,3,0,1,0,5.93.53A3,3,0,0,0,479.17,731.22Z" transform="translate(-261.92 -261.92)"/><path class="cls-1" d="M502.35,732.13a3,3,0,0,0-2.79,3.13,3,3,0,1,0,5.95-.36A3,3,0,0,0,502.35,732.13Z" transform="translate(-261.92 -261.92)"/><path class="cls-1" d="M560.76,724.11a3,3,0,0,0-2.1,3.63,3,3,0,1,0,5.75-1.56A3,3,0,0,0,560.76,724.11Z" transform="translate(-261.92 -261.92)"/><path class="cls-1" d="M490.91,732a3,3,0,0,0-3.09,2.84,3,3,0,1,0,6,.23A3,3,0,0,0,490.91,732Z" transform="translate(-261.92 -261.92)"/><path class="cls-1" d="M511.63,734.84a3,3,0,0,0,3.12,2.81,3,3,0,0,0,2.09-1,3.57,3.57,0,0,0-.26-4.21A3,3,0,0,0,511.63,734.84Z" transform="translate(-261.92 -261.92)"/><path class="cls-1" d="M552.88,729.15a3,3,0,0,0-5.82,1.26A3,3,0,1,0,552.88,729.15Z" transform="translate(-261.92 -261.92)"/><path class="cls-1" d="M523.51,734a3,3,0,0,0,3.25,2.65,3,3,0,0,0,2-1.09,3.57,3.57,0,0,0-.48-4.19A3,3,0,0,0,523.51,734Z" transform="translate(-261.92 -261.92)"/><path class="cls-1" d="M400.22,709.67a3,3,0,0,0-4,1.39,3,3,0,1,0,5.36,2.56A3,3,0,0,0,400.22,709.67Z" transform="translate(-261.92 -261.92)"/><path class="cls-1" d="M537.79,729.08a3,3,0,0,0-2.46,3.4,3,3,0,1,0,5.88-1A3,3,0,0,0,537.79,729.08Z" transform="translate(-261.92 -261.92)"/><path class="cls-1" d="M421.88,718.67a3,3,0,0,0-3.8,1.78,3,3,0,1,0,5.61,2A3,3,0,0,0,421.88,718.67Z" transform="translate(-261.92 -261.92)"/><path class="cls-1" d="M433.05,722.34a3,3,0,0,0-3.7,2,3,3,0,1,0,5.7,1.72A3,3,0,0,0,433.05,722.34Z" transform="translate(-261.92 -261.92)"/><path class="cls-1" d="M410.93,714.44a3,3,0,0,0-3.87,1.59,3,3,0,1,0,5.48,2.28A3,3,0,0,0,410.93,714.44Z" transform="translate(-261.92 -261.92)"/><path class="cls-1" d="M455.88,728a3,3,0,0,0-3.48,2.34,3,3,0,1,0,5.85,1.13A3,3,0,0,0,455.88,728Z" transform="translate(-261.92 -261.92)"/><path class="cls-1" d="M467.49,729.88a3,3,0,0,0-3.36,2.52,3,3,0,1,0,5.9.83A3,3,0,0,0,467.49,729.88Z" transform="translate(-261.92 -261.92)"/><path class="cls-1" d="M444.41,725.44a3,3,0,0,0-3.6,2.16,3,3,0,1,0,5.78,1.42A3,3,0,0,0,444.41,725.44Z" transform="translate(-261.92 -261.92)"/><path class="cls-1" d="M735,506.32a3,3,0,0,0-.23,6A3,3,0,1,0,735,506.32Z" transform="translate(-261.92 -261.92)"/><path class="cls-1" d="M670.33,337.92a3,3,0,1,0-4.16-4.26A3,3,0,0,0,670.33,337.92Z" transform="translate(-261.92 -261.92)"/><path class="cls-1" d="M435.41,273.87a3,3,0,0,0,5.75-1.56A3,3,0,1,0,435.41,273.87Z" transform="translate(-261.92 -261.92)"/><path class="cls-1" d="M508.91,268a3,3,0,0,0,3.09-2.84,3,3,0,1,0-6-.23A3,3,0,0,0,508.91,268Z" transform="translate(-261.92 -261.92)"/><path class="cls-1" d="M462,270.95a3,3,0,0,0,2.46-3.4,3,3,0,1,0-5.88,1A3,3,0,0,0,462,270.95Z" transform="translate(-261.92 -261.92)"/><path class="cls-1" d="M476.31,266.06a2.94,2.94,0,0,0-3.25-2.65,3,3,0,0,0-2,1.1,3.57,3.57,0,0,0,.48,4.19A3,3,0,0,0,476.31,266.06Z" transform="translate(-261.92 -261.92)"/><path class="cls-1" d="M497.15,267.87a2.93,2.93,0,0,0,2.89-3,3,3,0,0,0-3-3,2.94,2.94,0,0,0-2.89,3A3,3,0,0,0,497.15,267.87Z" transform="translate(-261.92 -261.92)"/><path class="cls-1" d="M485.4,268.31a3,3,0,0,0,2.79-3.14,3,3,0,1,0-5.94.37A3,3,0,0,0,485.4,268.31Z" transform="translate(-261.92 -261.92)"/><path class="cls-1" d="M446.94,270.89a3,3,0,0,0,5.82-1.26A3,3,0,1,0,446.94,270.89Z" transform="translate(-261.92 -261.92)"/><path class="cls-1" d="M370.59,303.67a3,3,0,0,0,5-3.22A3,3,0,1,0,370.59,303.67Z" transform="translate(-261.92 -261.92)"/><path class="cls-1" d="M384.76,298.44a3,3,0,0,0,1.12-4,3,3,0,1,0-5.18,3A3,3,0,0,0,384.76,298.44Z" transform="translate(-261.92 -261.92)"/><path class="cls-1" d="M427.78,279.31a3,3,0,0,0,1.92-3.74,3,3,0,1,0-5.68,1.86A3,3,0,0,0,427.78,279.31Z" transform="translate(-261.92 -261.92)"/><path class="cls-1" d="M360.81,310.49a3,3,0,0,0,4.85-3.47A3,3,0,1,0,360.81,310.49Z" transform="translate(-261.92 -261.92)"/><path class="cls-1" d="M412.82,281.58a3,3,0,0,0,5.58-2.14A3,3,0,1,0,412.82,281.58Z" transform="translate(-261.92 -261.92)"/><path class="cls-1" d="M405.77,287.78a3,3,0,0,0,1.53-3.92,3,3,0,1,0-5.46,2.43A3,3,0,0,0,405.77,287.78Z" transform="translate(-261.92 -261.92)"/><path class="cls-1" d="M395.13,292.84a3,3,0,0,0,1.33-4,3,3,0,1,0-5.32,2.7A3,3,0,0,0,395.13,292.84Z" transform="translate(-261.92 -261.92)"/><path class="cls-1" d="M588.91,285.49a3,3,0,0,0,3.87-1.59,3,3,0,1,0-5.48-2.28A3,3,0,0,0,588.91,285.49Z" transform="translate(-261.92 -261.92)"/><path class="cls-1" d="M634.26,307a3,3,0,1,0-4.92-3.34A3,3,0,0,0,634.26,307Z" transform="translate(-261.92 -261.92)"/><path class="cls-1" d="M620.26,301.4a3,3,0,0,0,4.07-1,3,3,0,1,0-5.08-3.08A3,3,0,0,0,620.26,301.4Z" transform="translate(-261.92 -261.92)"/><path class="cls-1" d="M601.88,290.37a3,3,0,0,0,1.69-1.51,3,3,0,0,0-1.37-4,3,3,0,0,0-2.3-.14A3,3,0,0,0,601.88,290.37Z" transform="translate(-261.92 -261.92)"/><path class="cls-1" d="M610.08,295.56a3,3,0,0,0,4-1.19,3,3,0,1,0-5.23-2.82A3,3,0,0,0,610.08,295.56Z" transform="translate(-261.92 -261.92)"/><path class="cls-1" d="M643.84,314a3,3,0,1,0-4.75-3.58A3,3,0,0,0,643.84,314Z" transform="translate(-261.92 -261.92)"/><path class="cls-1" d="M661.9,329.5a3,3,0,1,0-4.37-4A3,3,0,0,0,661.9,329.5Z" transform="translate(-261.92 -261.92)"/><path class="cls-1" d="M653.06,321.52a3,3,0,1,0-4.56-3.82A3,3,0,0,0,653.06,321.52Z" transform="translate(-261.92 -261.92)"/><path class="cls-1" d="M557.67,274.17a3,3,0,0,0,1.36-1.82,3,3,0,1,0-5.79-1.42,3,3,0,0,0,.36,2.24A3.57,3.57,0,0,0,557.67,274.17Z" transform="translate(-261.92 -261.92)"/><path class="cls-1" d="M543.94,272a3,3,0,0,0,3.48-2.34,3,3,0,1,0-5.85-1.12A3,3,0,0,0,543.94,272Z" transform="translate(-261.92 -261.92)"/><path class="cls-1" d="M520.65,268.76a3,3,0,0,0,3.23-2.68,3,3,0,1,0-5.93-.52A3,3,0,0,0,520.65,268.76Z" transform="translate(-261.92 -261.92)"/><path class="cls-1" d="M532.34,270.09a3,3,0,0,0,3.36-2.52,3,3,0,1,0-5.9-.82A3,3,0,0,0,532.34,270.09Z" transform="translate(-261.92 -261.92)"/><path class="cls-1" d="M566.77,277.6a3,3,0,0,0,3.7-2,3,3,0,1,0-5.71-1.71A3,3,0,0,0,566.77,277.6Z" transform="translate(-261.92 -261.92)"/><path class="cls-1" d="M580.21,281.15a3.59,3.59,0,0,0,1.44-3.95,2.92,2.92,0,0,0-1.68-1.53A3,3,0,1,0,580.21,281.15Z" transform="translate(-261.92 -261.92)"/><path class="cls-1" d="M355.56,318.25a3,3,0,0,0,.49-4.17,3,3,0,1,0-4.66,3.71A3,3,0,0,0,355.56,318.25Z" transform="translate(-261.92 -261.92)"/><path class="cls-1" d="M288.61,401.82a3,3,0,1,0-3.68-4.1,3,3,0,0,0-.14,2.3A3.58,3.58,0,0,0,288.61,401.82Z" transform="translate(-261.92 -261.92)"/><path class="cls-1" d="M678.32,346.75a3,3,0,1,0-3.94-4.47A3,3,0,0,0,678.32,346.75Z" transform="translate(-261.92 -261.92)"/><path class="cls-1" d="M699.51,375.53a3,3,0,1,0-3.23-5A3,3,0,0,0,699.51,375.53Z" transform="translate(-261.92 -261.92)"/><path class="cls-1" d="M692.93,365.58a3,3,0,1,0-3.47-4.85A3,3,0,0,0,692.93,365.58Z" transform="translate(-261.92 -261.92)"/><path class="cls-1" d="M686.37,351.82a3,3,0,0,0-5.31,1.49,3.57,3.57,0,0,0,2.61,3.28,3,3,0,0,0,2.18-.61A3,3,0,0,0,686.37,351.82Z" transform="translate(-261.92 -261.92)"/><path class="cls-1" d="M265,493.86a3,3,0,0,0,.23-6A3,3,0,1,0,265,493.86Z" transform="translate(-261.92 -261.92)"/><path class="cls-1" d="M268.3,514.51a3,3,0,0,0-3.13-2.79,3,3,0,1,0,.37,5.94A3,3,0,0,0,268.3,514.51Z" transform="translate(-261.92 -261.92)"/><path class="cls-1" d="M265.1,505.95a3,3,0,0,0-.37-5.94A3,3,0,1,0,265.1,505.95Z" transform="translate(-261.92 -261.92)"/><path class="cls-1" d="M718.27,418.23a3.58,3.58,0,0,0,3.94-1.47,2.92,2.92,0,0,0,.07-2.27A3,3,0,1,0,718.27,418.23Z" transform="translate(-261.92 -261.92)"/><path class="cls-1" d="M729.09,446.86a3,3,0,0,0,1.27,5.82A3,3,0,1,0,729.09,446.86Z" transform="translate(-261.92 -261.92)"/><path class="cls-1" d="M724,439a3,3,0,0,0,3.64,2.1,3,3,0,1,0-1.56-5.75A3,3,0,0,0,724,439Z" transform="translate(-261.92 -261.92)"/><path class="cls-1" d="M729,461.95a3,3,0,0,0,3.4,2.45,3,3,0,1,0-1-5.88A3,3,0,0,0,729,461.95Z" transform="translate(-261.92 -261.92)"/><path class="cls-1" d="M712.19,405.69a3,3,0,0,0,3.92,1.53,3,3,0,1,0-2.43-5.46A3,3,0,0,0,712.19,405.69Z" transform="translate(-261.92 -261.92)"/><path class="cls-1" d="M705.57,385.8a3,3,0,1,0-3-5.18A3,3,0,0,0,705.57,385.8Z" transform="translate(-261.92 -261.92)"/><path class="cls-1" d="M720.66,427.7a3,3,0,0,0,3.74,1.92,3,3,0,1,0-1.86-5.68A3,3,0,0,0,720.66,427.7Z" transform="translate(-261.92 -261.92)"/><path class="cls-1" d="M265.56,482a3,3,0,0,0,.53-5.93A3,3,0,1,0,265.56,482Z" transform="translate(-261.92 -261.92)"/><path class="cls-1" d="M314.63,360.24a3,3,0,0,0-.57-4.16,3,3,0,1,0-3.59,4.75A3,3,0,0,0,314.63,360.24Z" transform="translate(-261.92 -261.92)"/><path class="cls-1" d="M291.59,391.06a3,3,0,0,0,2.82-5.23A3,3,0,1,0,291.59,391.06Z" transform="translate(-261.92 -261.92)"/><path class="cls-1" d="M342.35,325.56a3,3,0,0,0,4.47-3.94A3,3,0,1,0,342.35,325.56Z" transform="translate(-261.92 -261.92)"/><path class="cls-1" d="M297.37,380.67a3,3,0,0,0,3.09-5.08A3,3,0,1,0,297.37,380.67Z" transform="translate(-261.92 -261.92)"/><path class="cls-1" d="M305.89,371a3.56,3.56,0,0,0,2.35-3.46,3,3,0,0,0-1.23-1.9,3,3,0,1,0-3.34,4.92A3,3,0,0,0,305.89,371Z" transform="translate(-261.92 -261.92)"/><path class="cls-1" d="M337.92,333.81a3,3,0,0,0,.07-4.2,3,3,0,1,0-4.26,4.16A3,3,0,0,0,337.92,333.81Z" transform="translate(-261.92 -261.92)"/><path class="cls-1" d="M321.94,351a3,3,0,0,0-.36-4.18,3,3,0,1,0-3.82,4.56A3,3,0,0,0,321.94,351Z" transform="translate(-261.92 -261.92)"/><path class="cls-1" d="M329.71,342.23a3,3,0,0,0-.15-4.19,3,3,0,1,0-4,4.37A3,3,0,0,0,329.71,342.23Z" transform="translate(-261.92 -261.92)"/><path class="cls-1" d="M268.56,458.34a3,3,0,0,0,1.12-5.85A3,3,0,1,0,268.56,458.34Z" transform="translate(-261.92 -261.92)"/><path class="cls-1" d="M271,446.68a3,3,0,0,0,1.42-5.78A3,3,0,1,0,271,446.68Z" transform="translate(-261.92 -261.92)"/><path class="cls-1" d="M733.26,470.3a3,3,0,0,0,.67,5.92A3,3,0,1,0,733.26,470.3Z" transform="translate(-261.92 -261.92)"/><path class="cls-1" d="M273.94,435.15a3,3,0,0,0,1.71-5.71A3,3,0,1,0,273.94,435.15Z" transform="translate(-261.92 -261.92)"/><path class="cls-1" d="M266.76,470.12a3,3,0,0,0,.82-5.9A3,3,0,1,0,266.76,470.12Z" transform="translate(-261.92 -261.92)"/><path class="cls-1" d="M281.3,422a3,3,0,0,0-.11-2.27,3.59,3.59,0,0,0-3.95-1.44,2.92,2.92,0,0,0-1.53,1.68A3,3,0,1,0,281.3,422Z" transform="translate(-261.92 -261.92)"/><path class="cls-1" d="M281.66,412.62a3,3,0,0,0,2.28-5.48A3,3,0,1,0,281.66,412.62Z" transform="translate(-261.92 -261.92)"/></svg>
